<svg
  viewBox="0 0 163 244"
  xmlns="http://www.w3.org/2000/svg"
  fill="none"
>
  <path
    d="M0.439 72.836C4.254 31.934 38.874 0 80.894 0c42.02 0 76.64 31.934 80.894 72.836h.439l-.364.765c.241 2.545.364 5.125.364 7.733C162.227 130.159 80.894 244 80.894 244S-.439 130.159-.439 81.334c0-2.608.123-5.188.364-7.733l-.364-.765h.439Z"
    fill="#fafafa"
  />
  <circle
    cx="81.333"
    cy="80.119"
    r="49.771"
    fill="#0a0a0a"
  />
  <path
    d="M81.333 57.411c2.26 0 4.138-1.662 4.138-3.732 0-2.07-1.843-3.732-4.138-3.732-4.521 0-8.902.784-13.005 2.384-3.964 1.506-7.546 3.701-10.606 6.461-3.06 2.76-5.494 5.991-7.163 9.566-1.739 3.732-2.643 7.653-2.643 11.73 0 2.039 1.843 3.732 4.138 3.732 2.295 0 4.138-1.662 4.138-3.732 0-12.515 11.302-22.708 25.176-22.708l-.035.031Z"
    fill="#fafafa"
  />
  <path
    d="M85.471 66.852c0-2.039-1.843-3.732-4.138-3.732-5.042 0-9.772 1.756-13.318 4.987-3.547 3.231-5.529 7.465-5.529 12.013 0 2.039 1.843 3.732 4.138 3.732 2.295 0 4.138-1.662 4.138-3.732 0-5.269 4.729-9.535 10.571-9.535 2.26 0 4.138-1.662 4.138-3.732Z"
    fill="#fafafa"
  />
  <path
    d="M87.627 102.828h-6.294c-2.26 0-4.138 1.662-4.138 3.732 0 2.07 1.843 3.732 4.138 3.732h6.294c2.26 0 4.138-1.662 4.138-3.732 0-2.07-1.843-3.732-4.138-3.732Z"
    fill="#fafafa"
  />
  <path
    d="M110.613 76.387h-29.28c-.869 0-1.634.22-2.295.627-1.113.659-1.808 1.788-1.808 3.074 0 1.286.73 2.415 1.808 3.074.661.408 1.461.627 2.295.627h29.28c2.26 0 4.138-1.662 4.138-3.732 0-2.07-1.843-3.732-4.138-3.732v.063Z"
    fill="#fafafa"
  />
  <path
    d="M99.138 89.623H81.09c-2.156.125-3.86 1.725-3.86 3.732 0 2.007 1.704 3.607 3.86 3.701 2.156.094 18.048 0 18.048 0 2.26 0 4.138-1.662 4.138-3.732 0-2.07-1.843-3.732-4.138-3.732l0 .031Z"
    fill="#fafafa"
  />
</svg>
